<svg xmlns="http://www.w3.org/2000/svg" viewBox="0 0 32 20" width="64" height="40" shape-rendering="crispEdges">
<ellipse cx="16" cy="10" rx="14" ry="9" fill="#4CAF50" opacity="0.15">
<animate attributeName="opacity" values="0.1;0.25;0.1" dur="2s" repeatCount="indefinite"/>
</ellipse>
<path d="M2,10 Q2,4 7,3 L24,3 Q29,4 30,9 L31,10 L30,11 Q29,16 24,17 L7,17 Q2,16 2,10 Z" fill="#1B5E20"/>
<path d="M4,12 L26,13 Q28,12 28,11 L4,11 Z" fill="#A5D6A7" opacity="0.4"/>
<path d="M28,4 L32,1 L32,7 Z" fill="#0D3B0E"/>
<path d="M28,16 L32,19 L32,13 Z" fill="#0D3B0E"/>
<path d="M8,3 L10,0 L12,2 L14,0 L16,3 Z" fill="#0D3B0E"/>
<line x1="3" y1="8" x2="1" y2="5" stroke="#4CAF50" stroke-width="1.5" stroke-linecap="round"/>
<path d="M2,10 L4,9 L4,11 Z" fill="#0D3B0E"/>
<rect x="3" y="10.5" width="1.2" height="0.8" fill="white"/>
<rect x="5" y="10.5" width="1.2" height="0.8" fill="white"/>
<rect x="7" y="10.5" width="1.2" height="0.8" fill="white"/>
<circle cx="5" cy="7" r="2" fill="#FFEB3B"/>
<circle cx="5.5" cy="7" r="1.2" fill="#1a1a2e"/>
</svg>