<svg xmlns="http://www.w3.org/2000/svg" viewBox="0 0 48 32" width="48" height="32">
<ellipse cx="24" cy="16" rx="18" ry="10" fill="#FF9800" opacity="0.15">
<animate attributeName="opacity" values="0.1;0.3;0.1" dur="1.5s" repeatCount="indefinite"/>
</ellipse>
<path d="M8,16 Q8,10 16,9 L32,9 Q40,10 42,16 Q40,22 32,23 L16,23 Q8,22 8,16 Z" fill="#FF5722"/>
<path d="M10,18 Q14,21 22,22 L32,22 Q38,21 40,18 Z" fill="#FFCCBC" opacity="0.5"/>
<path d="M38,9 Q44,5 45,10 L40,11 Z" fill="#BF360C"/>
<path d="M38,23 Q44,27 45,22 L40,21 Z" fill="#BF360C"/>
<path d="M14,9 L16,3 L19,6 L22,1 L25,6 L28,3 L30,9 Z" fill="#FF9800"/>
<path d="M17,4 L18,1 L20,4 Z" fill="#FFEB3B" opacity="0.8"/>
<path d="M23,2 L24,0 L26,3 Z" fill="#FFEB3B" opacity="0.8"/>
<path d="M40,6 Q43,3 42,8 Z" fill="#FFEB3B" opacity="0.6"/>
<path d="M40,26 Q43,29 42,24 Z" fill="#FFEB3B" opacity="0.6"/>
<circle cx="12" cy="14" r="2.8" fill="white"/>
<circle cx="12.7" cy="14" r="1.7" fill="#FFEB3B"/>
<circle cx="12" cy="13.3" r="0.7" fill="white" opacity="0.8"/>
</svg>