<svg xmlns="http://www.w3.org/2000/svg" viewBox="0 0 48 32" width="48" height="32">
<ellipse cx="24" cy="16" rx="18" ry="10" fill="#FFD700" opacity="0.15">
<animate attributeName="opacity" values="0.1;0.25;0.1" dur="1.5s" repeatCount="indefinite"/>
</ellipse>
<ellipse cx="20" cy="16" rx="12" ry="9" fill="#FFD700"/>
<ellipse cx="20" cy="19" rx="8" ry="5" fill="#FFF8E1" opacity="0.5"/>
<path d="M32,10 Q40,5 43,10 Q40,13 36,12 Z" fill="#FF69B4"/>
<path d="M32,22 Q40,27 43,22 Q40,19 36,20 Z" fill="#FF69B4"/>
<path d="M32,14 Q38,12 40,14 Q38,16 32,18 Z" fill="#FFB300" opacity="0.5"/>
<path d="M16,7 Q19,3 22,7 Z" fill="#FF69B4"/>
<circle cx="14" cy="14" r="2.8" fill="white"/>
<circle cx="14.7" cy="14" r="1.7" fill="#00BCD4"/>
<circle cx="14" cy="13.3" r="0.7" fill="white" opacity="0.8"/>
<circle cx="28" cy="9" r="0.7" fill="white"><animate attributeName="opacity" values="0;1;0" dur="1.5s" repeatCount="indefinite"/></circle>
<circle cx="34" cy="16" r="0.7" fill="white"><animate attributeName="opacity" values="0;1;0" dur="2s" repeatCount="indefinite" begin="0.5s"/></circle>
</svg>