<svg xmlns="http://www.w3.org/2000/svg" viewBox="0 0 32 20" width="64" height="40" style="image-rendering:pixelated">
<ellipse cx="16" cy="10" rx="15" ry="10" fill="#FFD600" opacity="0.15"><animate attributeName="opacity" values="0.1;0.25;0.1" dur="1.5s" repeatCount="indefinite"/></ellipse>
<ellipse cx="16" cy="10" rx="12" ry="8" fill="#FFD600" opacity="0.1"><animate attributeName="opacity" values="0.05;0.2;0.05" dur="2s" repeatCount="indefinite"/></ellipse>
<rect x="8" y="4" width="16" height="1" fill="#FF8F00"/>
<rect x="6" y="5" width="20" height="1" fill="#FF8F00"/>
<rect x="5" y="6" width="22" height="1" fill="#FF8F00"/>
<rect x="4" y="7" width="24" height="1" fill="#FF8F00"/>
<rect x="4" y="8" width="24" height="1" fill="#FF8F00"/>
<rect x="4" y="9" width="24" height="1" fill="#FF8F00"/>
<rect x="4" y="10" width="24" height="1" fill="#FF8F00"/>
<rect x="4" y="11" width="24" height="1" fill="#FF8F00"/>
<rect x="5" y="12" width="22" height="1" fill="#FF8F00"/>
<rect x="6" y="13" width="20" height="1" fill="#FF8F00"/>
<rect x="8" y="14" width="16" height="1" fill="#FF8F00"/>
<rect x="10" y="15" width="12" height="1" fill="#FF8F00"/>
<rect x="8" y="6" width="16" height="4" fill="#E65100" opacity="0.3"/>
<rect x="6" y="12" width="18" height="2" fill="#FFECB3" opacity="0.6"/>
<rect x="27" y="3" width="4" height="1" fill="#E65100"/>
<rect x="28" y="4" width="3" height="1" fill="#E65100"/>
<rect x="29" y="5" width="2" height="2" fill="#E65100"/>
<rect x="28" y="7" width="2" height="2" fill="#E65100"/>
<rect x="27" y="9" width="2" height="2" fill="#E65100"/>
<rect x="28" y="11" width="2" height="2" fill="#E65100"/>
<rect x="29" y="13" width="2" height="2" fill="#E65100"/>
<rect x="28" y="15" width="3" height="1" fill="#E65100"/>
<rect x="27" y="16" width="4" height="1" fill="#E65100"/>
<rect x="12" y="2" width="8" height="1" fill="#E65100"/>
<rect x="13" y="3" width="6" height="1" fill="#E65100"/>
<rect x="14" y="4" width="4" height="1" fill="#E65100"/>
<rect x="10" y="13" width="4" height="2" fill="#E65100" opacity="0.8"/>
<rect x="6" y="7" width="4" height="4" fill="white"/>
<rect x="7" y="8" width="3" height="3" fill="#FFEB3B"/>
<rect x="8" y="8" width="1" height="1" fill="white"/>
<rect x="6" y="7" width="4" height="4" fill="#FFEB3B" opacity="0.3"><animate attributeName="opacity" values="0.1;0.4;0.1" dur="1s" repeatCount="indefinite"/></rect>
<rect x="3" y="3" width="1" height="4" fill="#FFD600"/>
<rect x="2" y="2" width="1" height="2" fill="#FFD600"/>
<rect x="2" y="2" width="2" height="1" fill="white" opacity="0.5"/>
<rect x="20" y="4" width="1" height="1" fill="white" opacity="0.8"><animate attributeName="opacity" values="0;1;0" dur="1.5s" repeatCount="indefinite"/></rect>
<rect x="14" y="14" width="1" height="1" fill="white" opacity="0.6"><animate attributeName="opacity" values="0;1;0" dur="2s" repeatCount="indefinite" begin="0.5s"/></rect>
<rect x="24" y="8" width="1" height="1" fill="white" opacity="0.7"><animate attributeName="opacity" values="0;1;0" dur="1.8s" repeatCount="indefinite" begin="1s"/></rect>
</svg>