<svg xmlns="http://www.w3.org/2000/svg" viewBox="0 0 32 20" width="64" height="40">
<ellipse cx="16" cy="10" rx="13" ry="8" fill="#FF9800" opacity="0.25"><animate attributeName="opacity" values="0.15;0.35;0.15" dur="2s" repeatCount="indefinite"/></ellipse>
<path d="M4,10 Q4,5 10,4 L22,4 Q28,4 29,7 L31,10 L29,13 Q28,16 22,16 L10,16 Q4,15 4,10 Z" fill="#FF5722"/>
<path d="M6,11 Q6,14 10,15 L22,15 Q26,14 27,12 L6,12 Z" fill="#FFCCBC" opacity="0.6"/>
<path d="M28,6 L32,2 L32,8 Z" fill="#BF360C"/>
<path d="M28,14 L32,18 L32,12 Z" fill="#BF360C"/>
<path d="M12,4 L16,1 L20,4 Z" fill="#BF360C"/>
<path d="M12,13 L14,17 L16,13 Z" fill="#BF360C" opacity="0.8"/>
<circle cx="7" cy="8" r="2.5" fill="white"/>
<circle cx="7.5" cy="8" r="1.5" fill="#FFEB3B"/>
<circle cx="7" cy="7.5" r="0.7" fill="white" opacity="0.8"/>
<path d="M8,2 L9,0 L11,2 L13,0 L14,2" fill="#FF9800" stroke="#FF9800" stroke-width="0.5"/>
<line x1="5" y1="10" x2="7" y2="10" stroke="#BF360C" stroke-width="0.5" opacity="0.6"/>
</svg>