<svg xmlns="http://www.w3.org/2000/svg" viewBox="0 0 32 20" width="64" height="40" shape-rendering="crispEdges">
<path d="M1,10 L4,8 L8,7 L25,7 Q29,8 30,10 Q29,12 25,13 L8,13 L4,12 L1,10 Z" fill="#8BC34A"/>
<path d="M5,11 L26,12 Q28,11 28,10 L5,10 Z" fill="#F1F8E9" opacity="0.4"/>
<path d="M28,7 L32,4 L31,8 Z" fill="#33691E"/>
<path d="M28,13 L32,16 L31,12 Z" fill="#33691E"/>
<path d="M16,7 L18,4 L20,5 L22,4 L24,7 Z" fill="#33691E"/>
<path d="M1,10 L3,9.5 L3,10.5 Z" fill="#33691E"/>
<rect x="2" y="9.5" width="1" height="0.5" fill="white"/>
<rect x="3" y="10" width="1" height="0.5" fill="white"/>
<circle cx="6" cy="9" r="1.8" fill="#F1F8E9"/>
<circle cx="6.3" cy="9" r="1" fill="#1a1a2e"/>
</svg>